<svg width="30" height="30" viewBox="0 0 30 30" fill="none" xmlns="http://www.w3.org/2000/svg">
<path d="M5.3145 26.4539C2.93868 24.4448 1.24639 21.7468 0.472008 18.7333C-0.302369 15.7198 -0.120505 12.5401 0.992413 9.6346C2.10533 6.72908 4.09422 4.24153 6.68361 2.51651C9.27299 0.79148 12.3347 -0.0856537 15.4447 0.00659425C18.5547 0.0988422 21.5591 1.15591 24.0417 3.03138C26.5243 4.90685 28.3622 7.5079 29.301 10.4743C30.2397 13.4407 30.2328 16.6255 29.2812 19.5878C28.3295 22.5501 26.4803 25.1431 23.9896 27.0078L20.7206 22.6413C22.3057 21.4547 23.4824 19.8046 24.088 17.9195C24.6936 16.0344 24.698 14.0077 24.1006 12.12C23.5032 10.2323 22.3336 8.57709 20.7538 7.3836C19.174 6.19012 17.2621 5.51745 15.283 5.45874C13.3039 5.40004 11.3555 5.95822 9.70775 7.05596C8.05996 8.1537 6.7943 9.73669 6.08608 11.5857C5.37786 13.4346 5.26213 15.4581 5.75491 17.3757C6.2477 19.2934 7.32461 21.0104 8.8365 22.2888L5.3145 26.4539Z" fill="#F9896B"/>
<path d="M22.6781 13.1679C22.9541 14.3245 22.9652 15.5284 22.7107 16.6899C22.4561 17.8514 21.9425 18.9403 21.2081 19.8755C20.4737 20.8106 19.5375 21.5677 18.4695 22.0903C17.4015 22.6129 16.2292 22.8875 15.0402 22.8935C13.8511 22.8996 12.6761 22.6369 11.6029 22.1252C10.5296 21.6135 9.58577 20.8659 8.84191 19.9383C8.09805 19.0107 7.57337 17.927 7.30703 16.7682C7.04069 15.6093 7.03959 14.4053 7.3038 13.246L10.1024 13.8838C9.93431 14.6216 9.93501 15.3878 10.1045 16.1252C10.274 16.8626 10.6079 17.5522 11.0812 18.1425C11.5546 18.7328 12.1552 19.2086 12.8382 19.5342C13.5212 19.8599 14.2689 20.027 15.0256 20.0232C15.7822 20.0193 16.5282 19.8446 17.2079 19.512C17.8875 19.1795 18.4833 18.6976 18.9506 18.1026C19.418 17.5075 19.7448 16.8145 19.9068 16.0754C20.0688 15.3363 20.0617 14.5701 19.8861 13.8341L22.6781 13.1679Z" fill="#7947F7"/>
</svg>
